<mxfile host="app.diagrams.net" modified="2024-03-21T11:59:24.446Z" agent="Mozilla/5.0 (Windows NT 10.0; Win64; x64) AppleWebKit/537.36 (KHTML, like Gecko) Chrome/122.0.0.0 Safari/537.36" version="24.0.7" etag="BQvdo9mEu5yPyG0Wys4F" type="github">
  <diagram name="Side-1" id="PF_iR-8uCak9htlt-Ifk">
    <mxGraphModel>
      <root>
        <mxCell id="0" />
        <mxCell id="1" parent="0" />
      </root>
    </mxGraphModel>
  </diagram>
</mxfile>
